<?xml version="1.0" encoding="UTF-8" standalone="no"?>
<svg width="50px" height="19px" viewBox="0 0 50 19" version="1.1" xmlns="http://www.w3.org/2000/svg" xmlns:xlink="http://www.w3.org/1999/xlink">
    <!-- Generator: Sketch 46 (44423) - http://www.bohemiancoding.com/sketch -->
    <title>LOGO Paci</title>
    <desc>Created with Sketch.</desc>
    <defs>
        <polygon id="path-1" points="5.7150921 0.031540148 5.7150921 8.48489097 2.86346047 8.48489097 0.0118288416 8.48489097 0.0118288416 0.031540148 5.7150921 0.031540148"></polygon>
        <polygon id="path-3" points="0 18.5926564 49.4719016 18.5926564 49.4719016 0 0 0"></polygon>
    </defs>
    <g id="Symbols" stroke="none" stroke-width="1" fill="none" fill-rule="evenodd">
        <g id="Header-app" transform="translate(-8.000000, -10.000000)">
            <g id="LOGO-Paci" transform="translate(8.000000, 10.000000)">
                <g>
                    <path d="M16.0455973,12.4329281 L18.1746473,12.4329281 L18.1746473,11.7497205 C18.1746473,11.3991276 18.0312438,11.1840148 17.7444015,11.1044863 C17.593605,11.0610882 17.3647042,11.040328 17.057699,11.0421015 C16.7506585,11.0439793 16.505203,11.0955146 16.3213678,11.1966726 C16.1374618,11.2979001 16.0455973,11.4913139 16.0455973,11.7768444 L16.0455973,12.4329281 Z M16.0787067,15.9899752 C15.784436,15.9285293 15.519702,15.8255283 15.2843986,15.6808679 C14.7916127,15.3845226 14.5453082,14.8711867 14.5453082,14.1409645 L14.5453082,11.8690306 C14.5453082,11.2833993 14.7714499,10.8279275 15.2237687,10.5026154 C15.6760521,10.1772685 16.2919018,10.0145951 17.0714946,10.0145951 C18.7519047,10.0145951 19.5921981,10.6508576 19.5921981,11.9232435 L19.5921981,13.333022 L16.0455973,13.333022 L16.0455973,14.2819389 C16.0455973,14.603704 16.1264254,14.8142267 16.2882583,14.9136112 C16.450056,15.0131 16.7240224,15.0627227 17.1101223,15.0627227 C17.4962222,15.0627227 17.7241679,15.0446749 17.7940656,15.0085098 C17.9595067,14.9182014 18.0661573,14.8088367 18.113982,14.6804853 C18.1617007,14.5522035 18.1893272,14.3831664 18.1967203,14.1734783 L19.5866445,14.1734783 C19.5646069,15.0700253 19.2428158,15.6375045 18.6214125,15.8760899 C18.2573855,16.013413 17.8161386,16.0829613 17.2976717,16.0848391 C16.7791694,16.0866126 16.372836,16.0550377 16.0787067,15.9899752 Z" id="Fill-1" fill="#FFFFFF"></path>
                    <path d="M24.5510544,11.8690202 C24.5510544,11.3666034 24.2035822,11.1153254 23.508567,11.1153254 C23.2107236,11.1153254 22.9440794,11.1921763 22.7088114,11.3457736 C22.4734372,11.4994754 22.3557855,11.709998 22.3557855,11.9774807 L22.3557855,15.962841 L20.8554965,15.962841 L20.8554965,10.1393195 L22.3557855,10.1393195 L22.3557855,10.6544289 C22.8595371,10.2206562 23.4479017,10.0037351 24.120844,10.0037351 C24.7937155,10.0037351 25.2837068,10.1737111 25.5907827,10.5134545 C25.8977525,10.8532675 26.0513081,11.2779988 26.0513081,11.7876835 L26.0513081,15.962841 L24.5510544,15.962841 L24.5510544,11.8690202 Z" id="Fill-3" fill="#FFFFFF"></path>
                    <path d="M28.8480156,12.4329281 L30.9770656,12.4329281 L30.9770656,11.7497205 C30.9770656,11.3991276 30.8336621,11.1840148 30.5468198,11.1044863 C30.3960232,11.0610882 30.1671224,11.040328 29.8601173,11.0421015 C29.5530768,11.0439793 29.3076212,11.0955146 29.1237861,11.1966726 C28.9398801,11.2979001 28.8480156,11.4913139 28.8480156,11.7768444 L28.8480156,12.4329281 Z M28.881125,15.9899752 C28.5868543,15.9285293 28.3221203,15.8255283 28.0868169,15.6808679 C27.594031,15.3845226 27.3477265,14.8711867 27.3477265,14.1409645 L27.3477265,11.8690306 C27.3477265,11.2833993 27.5738682,10.8279275 28.026187,10.5026154 C28.4784704,10.1772685 29.0943201,10.0145951 29.8739129,10.0145951 C31.5543229,10.0145951 32.3946164,10.6508576 32.3946164,11.9232435 L32.3946164,13.333022 L28.8480156,13.333022 L28.8480156,14.2819389 C28.8480156,14.603704 28.9288436,14.8142267 29.0906766,14.9136112 C29.2524742,15.0131 29.5264407,15.0627227 29.9125406,15.0627227 C30.2986405,15.0627227 30.5265862,15.0446749 30.5964839,15.0085098 C30.761925,14.9182014 30.8685756,14.8088367 30.9164003,14.6804853 C30.9641189,14.5522035 30.9917455,14.3831664 30.9991385,14.1734783 L32.3890628,14.1734783 C32.3670252,15.0700253 32.045234,15.6375045 31.4238307,15.8760899 C31.0598038,16.013413 30.6185569,16.0829613 30.10009,16.0848391 C29.5815877,16.0866126 29.1752542,16.0550377 28.881125,15.9899752 L28.881125,15.9899752 Z" id="Fill-5" fill="#FFFFFF"></path>
                    <path d="M33.6579254,15.9628445 L33.6579254,10.139323 L35.1582144,10.139323 L35.1582144,10.8333801 C35.2464709,10.6671249 35.4302707,10.5188828 35.7097908,10.3887579 C36.1914694,10.1609873 36.656558,10.0471367 37.1052686,10.0471367 C37.1567015,10.0471367 37.2045616,10.0490145 37.2486721,10.0525615 L37.2155627,11.3050914 C36.5573004,11.33764 36.0112423,11.4587931 35.5774238,11.6683768 C35.334692,11.78414 35.1949319,11.9142648 35.1582144,12.0587862 L35.1582144,15.9628445 L33.6579254,15.9628445 Z" id="Fill-7" fill="#FFFFFF"></path>
                    <path d="M40.3762653,14.8078943 C40.8652662,14.8078943 41.2312033,14.7211328 41.4738997,14.5476446 L41.4738997,11.451494 C41.4738997,11.3647325 41.3690885,11.2744241 41.1595369,11.1803948 C40.9462004,11.0900515 40.6741441,11.0448452 40.3431558,11.0448452 C39.6592125,11.0448452 39.3172939,11.3159444 39.3172939,11.8581776 L39.3172939,14.0325005 C39.3172939,14.5494876 39.6702843,14.8078943 40.3762653,14.8078943 M40.2990453,18.3540919 C39.4275879,18.3540919 38.7748439,18.2528296 38.34099,18.0504441 L38.6498699,17.0472796 C39.2050543,17.1991383 39.717154,17.2750502 40.1859921,17.2750502 C40.6548302,17.2750502 40.9866321,17.1836986 41.1815745,17.0012038 C41.3764108,16.8186396 41.4738997,16.5267802 41.4738997,16.1255214 L41.4738997,15.4856771 C41.1282315,15.688167 40.6382755,15.789325 40.0039963,15.789325 C39.3696818,15.789325 38.8465456,15.6293639 38.4347293,15.3094418 C38.0228776,14.9895544 37.8169694,14.5458364 37.8169694,13.9782876 L37.8169694,11.8906914 C37.8169694,11.3666103 37.9907586,10.9228227 38.3382308,10.5595372 C38.6857031,10.1962517 39.2639155,10.0145916 40.072939,10.0145916 C40.385427,10.0145916 40.6915478,10.0661269 40.9913014,10.1691279 C41.2909135,10.2721637 41.5382084,10.401454 41.7331508,10.5568248 L41.8599996,10.1339017 L42.9741888,10.1339017 L42.9741888,16.0279104 C42.9741888,17.578698 42.0824271,18.3540919 40.2990453,18.3540919" id="Fill-9" fill="#FFFFFF"></path>
                    <g id="Group-13" transform="translate(43.756810, 10.107765)">
                        <mask id="mask-2" fill="white">
                            <use xlink:href="#path-1"></use>
                        </mask>
                        <g id="Clip-12"></g>
                        <path d="M0.6461434,8.48489097 L0.535849356,7.26487492 C1.06163854,7.16361262 1.44497932,6.96571297 1.6858717,6.6711412 C1.92665796,6.37646511 2.11144823,6.03943411 2.24017178,5.65987434 L0.0118288416,0.031540148 L1.45697088,0.031540148 L2.99585224,3.94102321 L4.22585368,0.031540148 L5.71510625,0.031540148 L3.91697376,5.09594206 C3.60809384,5.96706912 3.32676974,6.59335144 3.07303684,6.97478902 C2.81937469,7.35612227 2.58396518,7.63358516 2.36705592,7.80710814 C1.90373604,8.17581838 1.33008674,8.40167644 0.6461434,8.48489097" id="Fill-11" fill="#FFFFFF" mask="url(#mask-2)"></path>
                    </g>
                    <path d="M16.6248037,6.64694187 C17.1927579,6.64694187 17.4766997,6.42306594 17.4766997,5.97524452 L17.4766997,4.07786294 C17.4766997,3.63591835 17.2060583,3.41492867 16.6647402,3.41492867 C16.4842655,3.41492867 16.3171619,3.44399986 16.1633586,3.50210745 C16.00952,3.56031937 15.894203,3.62719004 15.8173014,3.70278903 L15.8173014,6.44191352 C16.077543,6.57864546 16.3467694,6.64694187 16.6248037,6.64694187 L16.6248037,6.64694187 Z M14.6104695,9.1592694 L14.6104695,2.68647992 L15.4534867,2.68647992 L15.5732608,2.99183167 C15.9488901,2.72139316 16.4007491,2.58619129 16.9287314,2.58619129 C17.4567491,2.58619129 17.8811583,2.72358393 18.2021359,2.99833444 C18.5230428,3.27311972 18.6834962,3.63883938 18.6834962,4.09531956 L18.6834962,5.94905959 C18.6834962,6.36780982 18.5208142,6.72619215 18.1954504,7.02424133 C17.8700511,7.32232528 17.3805196,7.47129771 16.7268558,7.47129771 C16.3867059,7.47129771 16.083521,7.4130858 15.8173014,7.29680106 L15.8173014,9.1592694 L14.6104695,9.1592694 Z" id="Fill-14" fill="#FFFFFF"></path>
                    <path d="M21.1147618,6.08861866 C21.1147618,6.46372734 21.3217665,6.65129907 21.7359175,6.65129907 C21.8985287,6.65129907 22.0701247,6.60918759 22.250564,6.52479074 C22.430968,6.44049822 22.5729566,6.32129245 22.6765297,6.16713868 L22.6765297,4.99820585 C22.5345411,5.11160433 22.2845578,5.23303564 21.9266858,5.36239545 C21.5687785,5.49182481 21.3439456,5.61103058 21.2522933,5.72004752 C21.1605702,5.82909923 21.1147618,5.95199105 21.1147618,6.08861866 M22.1773766,7.2946555 C21.9185146,7.41240075 21.6042579,7.47130815 21.2345359,7.47130815 C20.8647785,7.47130815 20.5519721,7.35352812 20.2961168,7.11800285 C20.0402615,6.8824428 19.9123515,6.58150737 19.9123515,6.21512699 C19.9123515,5.84874662 20.0284114,5.55504421 20.2606373,5.33405452 C20.4928279,5.11309962 20.9372584,4.90080347 21.5939289,4.69723564 C21.9932584,4.57225737 22.273486,4.46028463 22.4347176,4.36138696 C22.5959139,4.26255885 22.6765297,4.12586169 22.6765297,3.95139981 C22.6765297,3.5908615 22.4265464,3.41201808 21.9266858,3.41490433 C21.6456447,3.41490433 21.4519404,3.46800445 21.3454313,3.57410036 C21.2389929,3.68026582 21.1857561,3.83361979 21.1857561,4.0342666 L21.1857561,4.21745678 L20.0543047,4.21745678 L20.0543047,4.07787337 C20.0543047,3.60974386 20.2125296,3.24409374 20.5290502,2.98092302 C20.8455707,2.71775231 21.3321663,2.58616695 21.9888014,2.58616695 C22.6454365,2.58616695 23.1224459,2.72289888 23.419688,2.9961541 C23.7169654,3.26954841 23.8656042,3.66207894 23.8656042,4.17385001 L23.8656042,6.02755526 C23.8656042,6.23693038 23.8922403,6.37505328 23.9454418,6.44192396 C23.998714,6.50886418 24.1007661,6.54224736 24.2516333,6.54224736 L24.2028181,7.40586321 L23.9498988,7.40586321 C23.6215636,7.40586321 23.3657083,7.36156095 23.1823329,7.27285211 C22.9989222,7.18417805 22.8628764,7.04386438 22.7741247,6.85191111 C22.6350721,7.02932879 22.4361679,7.17687548 22.1773766,7.2946555" id="Fill-16" fill="#FFFFFF"></path>
                    <path d="M27.397189,7.47129771 C26.4743342,7.47129771 25.8782582,7.26776465 25.6091379,6.86062898 C25.4405486,6.61060289 25.356254,6.30528592 25.356254,5.94471282 L25.356254,4.0691694 C25.356254,3.60100511 25.529265,3.23681551 25.8753576,2.97653105 C26.2214149,2.71635091 26.7139178,2.58619129 27.3528309,2.58619129 C27.991744,2.58619129 28.4731396,2.71047408 28.7970178,2.9591092 C29.1208961,3.20774433 29.2828705,3.66206851 29.2828705,4.32211652 L28.1469975,4.40936485 C28.1469975,3.98776313 28.095211,3.71586411 27.991744,3.59373732 C27.9296284,3.51813833 27.852656,3.46872427 27.7610037,3.44546037 C27.6722521,3.42515227 27.5184488,3.41492867 27.2995586,3.41492867 C26.8085415,3.41492867 26.5630505,3.63449261 26.5630505,4.07351617 L26.5630505,5.96651621 C26.5630505,6.21076979 26.6273946,6.38380593 26.7560474,6.4855203 C26.8847356,6.58737377 27.075504,6.63821356 27.3284233,6.63821356 C27.5813072,6.63821356 27.7594827,6.61571469 27.8630558,6.57061263 C27.9665935,6.52554534 28.0405238,6.43975753 28.084882,6.31324919 C28.1292755,6.18677563 28.1514546,5.98685908 28.1514546,5.71349954 L29.2784489,5.71349954 C29.2724708,6.05665079 29.2399627,6.33581761 29.1808185,6.55096524 C29.1216035,6.76034035 29.0181012,6.93772326 28.8702406,7.08311395 C28.6040209,7.33901687 28.1129684,7.46837669 27.397189,7.47129771" id="Fill-18" fill="#FFFFFF"></path>
                    <mask id="mask-4" fill="white">
                        <use xlink:href="#path-3"></use>
                    </mask>
                    <g id="Clip-21"></g>
                    <path d="M30.6359216,7.37097083 L31.8427535,7.37097083 L31.8427535,2.68647644 L30.6359216,2.68647644 L30.6359216,7.37097083 Z M30.6359216,2.01916063 L31.8427535,2.01916063 L31.8427535,0.967973053 L30.6359216,0.967973053 L30.6359216,2.01916063 Z" id="Fill-20" fill="#FFFFFF" mask="url(#mask-4)"></path>
                    <polygon id="Fill-22" fill="#FFFFFF" mask="url(#mask-4)" points="3.95601176 6.2926942 6.40112247 6.2926942 6.40112247 3.88896632 3.95601176 3.88896632"></polygon>
                    <polygon id="Fill-23" fill="#FFFFFF" mask="url(#mask-4)" points="3.95601176 14.0706268 6.40112247 14.0706268 6.40112247 11.6668989 3.95601176 11.6668989"></polygon>
                    <path d="M2.44514608,7.77793263 L7.91198815,7.77793263 L7.91198815,2.40369311 L2.44514608,2.40369311 L2.44514608,7.77793263 Z M0,0 L0,17.9595931 L10.3570989,17.9612623 L10.3570989,17.9595931 L10.3570989,11.6668989 L7.91198815,11.6668989 L7.91198815,15.5559 L2.44514608,15.5559 L2.44514608,10.1816605 L10.3570989,10.1816605 L10.3570989,0 L0,0 Z" id="Fill-24" fill="#FFFFFF" mask="url(#mask-4)"></path>
                </g>
            </g>
        </g>
    </g>
</svg>